<mxfile host="Electron" modified="2024-04-22T13:46:16.429Z" agent="Mozilla/5.0 (Windows NT 10.0; Win64; x64) AppleWebKit/537.36 (KHTML, like Gecko) draw.io/24.1.0 Chrome/120.0.6099.109 Electron/28.1.0 Safari/537.36" etag="_70LP2-9f28ndqU_Dadw" version="24.1.0" type="device">
  <diagram name="Page-1" id="wdSqGUs0RZ0oZ2mkJlCk">
    <mxGraphModel dx="861" dy="1616" grid="1" gridSize="10" guides="1" tooltips="1" connect="1" arrows="1" fold="1" page="1" pageScale="1" pageWidth="850" pageHeight="1100" math="0" shadow="0">
      <root>
        <mxCell id="0" />
        <mxCell id="1" parent="0" />
        <mxCell id="4PBNTEA-6r5hyWyB1aSW-1" value="Guest" style="swimlane;childLayout=stackLayout;horizontal=1;startSize=50;horizontalStack=0;rounded=1;fontSize=14;fontStyle=0;strokeWidth=2;resizeParent=0;resizeLast=1;shadow=0;dashed=0;align=center;arcSize=4;whiteSpace=wrap;html=1;" vertex="1" parent="1">
          <mxGeometry x="130" y="-10" width="160" height="120" as="geometry" />
        </mxCell>
        <mxCell id="4PBNTEA-6r5hyWyB1aSW-2" value="guest_id(PK)&lt;div&gt;name&lt;/div&gt;&lt;div&gt;other_guest_details&lt;br&gt;&lt;br&gt;&lt;/div&gt;" style="align=left;strokeColor=none;fillColor=none;spacingLeft=4;fontSize=12;verticalAlign=top;resizable=0;rotatable=0;part=1;html=1;" vertex="1" parent="4PBNTEA-6r5hyWyB1aSW-1">
          <mxGeometry y="50" width="160" height="70" as="geometry" />
        </mxCell>
        <mxCell id="4PBNTEA-6r5hyWyB1aSW-3" value="Room" style="swimlane;childLayout=stackLayout;horizontal=1;startSize=50;horizontalStack=0;rounded=1;fontSize=14;fontStyle=0;strokeWidth=2;resizeParent=0;resizeLast=1;shadow=0;dashed=0;align=center;arcSize=4;whiteSpace=wrap;html=1;" vertex="1" parent="1">
          <mxGeometry x="360" y="280" width="160" height="120" as="geometry" />
        </mxCell>
        <mxCell id="4PBNTEA-6r5hyWyB1aSW-4" value="Room_id(PK)&lt;div&gt;Room_number&lt;/div&gt;&lt;div&gt;Room_type&lt;/div&gt;&lt;div&gt;other_room_details&lt;/div&gt;" style="align=left;strokeColor=none;fillColor=none;spacingLeft=4;fontSize=12;verticalAlign=top;resizable=0;rotatable=0;part=1;html=1;" vertex="1" parent="4PBNTEA-6r5hyWyB1aSW-3">
          <mxGeometry y="50" width="160" height="70" as="geometry" />
        </mxCell>
        <mxCell id="4PBNTEA-6r5hyWyB1aSW-5" value="Reservation" style="swimlane;childLayout=stackLayout;horizontal=1;startSize=50;horizontalStack=0;rounded=1;fontSize=14;fontStyle=0;strokeWidth=2;resizeParent=0;resizeLast=1;shadow=0;dashed=0;align=center;arcSize=4;whiteSpace=wrap;html=1;" vertex="1" parent="1">
          <mxGeometry x="520" y="-20" width="160" height="140" as="geometry" />
        </mxCell>
        <mxCell id="4PBNTEA-6r5hyWyB1aSW-6" value="Reservation_id(PK)&lt;div&gt;guest_id(FK)&lt;/div&gt;&lt;div&gt;room_id(FK)&lt;/div&gt;&lt;div&gt;start_date&lt;/div&gt;&lt;div&gt;end_date&lt;/div&gt;" style="align=left;strokeColor=none;fillColor=none;spacingLeft=4;fontSize=12;verticalAlign=top;resizable=0;rotatable=0;part=1;html=1;" vertex="1" parent="4PBNTEA-6r5hyWyB1aSW-5">
          <mxGeometry y="50" width="160" height="90" as="geometry" />
        </mxCell>
        <mxCell id="4PBNTEA-6r5hyWyB1aSW-8" value="" style="edgeStyle=orthogonalEdgeStyle;fontSize=12;html=1;endArrow=ERoneToMany;startArrow=ERzeroToOne;rounded=0;entryX=1;entryY=0.5;entryDx=0;entryDy=0;exitX=0;exitY=0.5;exitDx=0;exitDy=0;" edge="1" parent="1" source="4PBNTEA-6r5hyWyB1aSW-6" target="4PBNTEA-6r5hyWyB1aSW-2">
          <mxGeometry width="100" height="100" relative="1" as="geometry">
            <mxPoint x="530" y="120" as="sourcePoint" />
            <mxPoint x="630" y="20" as="targetPoint" />
          </mxGeometry>
        </mxCell>
        <mxCell id="4PBNTEA-6r5hyWyB1aSW-9" value="" style="edgeStyle=entityRelationEdgeStyle;fontSize=12;html=1;endArrow=ERzeroToMany;startArrow=ERmandOne;rounded=0;entryX=1;entryY=0.5;entryDx=0;entryDy=0;" edge="1" parent="1" target="4PBNTEA-6r5hyWyB1aSW-4">
          <mxGeometry width="100" height="100" relative="1" as="geometry">
            <mxPoint x="680" y="95" as="sourcePoint" />
            <mxPoint x="850" y="100" as="targetPoint" />
            <Array as="points">
              <mxPoint x="760" y="80" />
            </Array>
          </mxGeometry>
        </mxCell>
        <mxCell id="4PBNTEA-6r5hyWyB1aSW-22" value="" style="edgeStyle=elbowEdgeStyle;fontSize=12;html=1;endArrow=ERzeroToOne;startArrow=ERmandOne;rounded=0;exitX=0;exitY=0.75;exitDx=0;exitDy=0;entryX=1;entryY=0.75;entryDx=0;entryDy=0;" edge="1" parent="1" source="4PBNTEA-6r5hyWyB1aSW-3" target="4PBNTEA-6r5hyWyB1aSW-2">
          <mxGeometry width="100" height="100" relative="1" as="geometry">
            <mxPoint x="309.99999999999994" y="349" as="sourcePoint" />
            <mxPoint x="127.92" y="130" as="targetPoint" />
          </mxGeometry>
        </mxCell>
      </root>
    </mxGraphModel>
  </diagram>
</mxfile>
